<svg viewBox="0 0 880 280" xmlns="http://www.w3.org/2000/svg">
  <rect width="880" height="280" fill="#002855"/>
  <rect x="0" y="224" width="880" height="56" fill="#001A3A"/>
  <rect x="0" y="0" width="7" height="280" fill="#C9A84C"/>
  <rect x="7" y="0" width="3" height="280" fill="#A8873A" opacity="0.5"/>
  <rect x="820" y="22" width="44" height="2" fill="#C9A84C" opacity="0.4"/>
  <rect x="856" y="22" width="2" height="44" fill="#C9A84C" opacity="0.4"/>
  <rect x="820" y="256" width="44" height="2" fill="#C9A84C" opacity="0.2"/>
  <rect x="820" y="214" width="2" height="44" fill="#C9A84C" opacity="0.2"/>

  <!-- Escudo UNAM (esquina superior derecha) -->
  <!-- Círculo exterior -->
  <circle cx="820" cy="72" r="52" fill="#C9A84C"/>
  <circle cx="820" cy="72" r="48" fill="#002855"/>
  <circle cx="820" cy="72" r="44" fill="#C9A84C"/>
  <circle cx="820" cy="72" r="40" fill="#002855"/>
  <!-- Texto circular superior -->
  <path id="arcTop" d="M 778,72 A 42,42 0 0,1 862,72" fill="none"/>
  <text font-family="Georgia, serif" font-size="5.5" fill="#C9A84C" letter-spacing="1.2">
    <textPath href="#arcTop" startOffset="8%">UNIVERSIDAD NACIONAL AUTÓNOMA DE MÉXICO</textPath>
  </text>
  <!-- Mapa América (silueta simplificada) -->
  <ellipse cx="816" cy="70" rx="7" ry="10" fill="#C9A84C" opacity="0.9"/>
  <ellipse cx="824" cy="73" rx="5" ry="8" fill="#C9A84C" opacity="0.9"/>
  <!-- Águila izquierda (simplificada) -->
  <ellipse cx="797" cy="66" rx="6" ry="9" fill="#C9A84C"/>
  <ellipse cx="797" cy="60" rx="4" ry="4" fill="#C9A84C"/>
  <path d="M793 58 Q790 54 788 56 Q790 60 793 60Z" fill="#C9A84C"/>
  <path d="M801 58 Q804 54 806 56 Q804 60 801 60Z" fill="#C9A84C"/>
  <path d="M791 70 Q786 74 785 78 Q789 76 793 72Z" fill="#C9A84C"/>
  <path d="M803 70 Q808 74 809 78 Q805 76 801 72Z" fill="#C9A84C"/>
  <!-- Águila derecha (simplificada) -->
  <ellipse cx="843" cy="66" rx="6" ry="9" fill="#C9A84C"/>
  <ellipse cx="843" cy="60" rx="4" ry="4" fill="#C9A84C"/>
  <path d="M839 58 Q836 54 834 56 Q836 60 839 60Z" fill="#C9A84C"/>
  <path d="M847 58 Q850 54 852 56 Q850 60 847 60Z" fill="#C9A84C"/>
  <path d="M837 70 Q832 74 831 78 Q835 76 839 72Z" fill="#C9A84C"/>
  <path d="M849 70 Q854 74 855 78 Q851 76 847 72Z" fill="#C9A84C"/>
  <!-- Franja inferior escudo -->
  <rect x="780" y="88" width="80" height="14" rx="2" fill="#C9A84C"/>
  <text x="820" y="98" font-family="Georgia, serif" font-size="5.5" fill="#002855" text-anchor="middle" letter-spacing="1">POR MI RAZA HABLARÁ EL ESPÍRITU</text>

  <!-- Contenido textual -->
  <text x="38" y="58" font-family="Georgia, serif" font-size="12" fill="#C9A84C" letter-spacing="3">FACULTAD DE CIENCIAS · UNAM · 2026</text>
  <text x="38" y="82" font-family="Georgia, serif" font-size="12" fill="#E8D5A0" letter-spacing="2" opacity="0.85">MÉTODOS CUANTITATIVOS PARA FINANZAS</text>
  <rect x="38" y="96" width="60" height="1.5" fill="#C9A84C" opacity="0.6"/>
  <text x="38" y="140" font-family="Georgia, serif" font-size="32" font-weight="bold" fill="#F5EDD4">ML para Pricing en Aseguradoras</text>
  <text x="38" y="170" font-family="Georgia, serif" font-size="15" fill="#A8C0D6">Modelos predictivos de riesgo y tarificación con machine learning</text>
  <rect x="38" y="236" width="120" height="2" fill="#C9A84C" opacity="0.7"/>
  <text x="170" y="248" font-family="Georgia, serif" font-size="13" fill="#E8D5A0">Gabriel Fernando Rosas Zepeda</text>
  <text x="170" y="265" font-family="Georgia, serif" font-size="12" fill="#A8C0D6">Asesor: Dra. Nora Gavira Durón</text>
</svg>
